<?xml version="1.0" encoding="UTF-8" standalone="no"?>
<svg width="196px" height="239px" viewBox="0 0 196 239" version="1.1" xmlns="http://www.w3.org/2000/svg" xmlns:xlink="http://www.w3.org/1999/xlink">
    <!-- Generator: Sketch 3.8.3 (29802) - http://www.bohemiancoding.com/sketch -->
    <g id="Page-1" stroke="none" stroke-width="1" fill="none" fill-rule="evenodd">
        <g id="Artboard">
            <g id="selo-software-fora-de-serie">
                <path d="M105.54554,2.11423077 C101.220657,-0.551538462 94.22723,-0.551538462 89.9023474,2.02230769 L7.63755869,52.8557692 C3.31267606,55.5215385 0,61.8642308 0,66.92 L0,170.609231 C0,175.665 3.31267606,182.007692 7.54553991,184.765385 L88.7061033,236.426154 C92.9389671,239.183846 99.9323944,239.183846 104.257277,236.61 L188.178404,185.684615 C192.503286,183.018846 195.907981,176.768077 195.907981,171.712308 L195.907981,68.0230769 C195.907981,62.9673077 192.503286,56.6246154 188.270423,53.9588462 L105.54554,2.11423077 L105.54554,2.11423077 Z" id="Shape" fill="#FDB831"></path>
                <g id="Group" transform="translate(24.845070, 96.519231)" fill="#E76A25">
                    <g transform="translate(30.366197, 0.000000)" id="Shape">
                        <polygon points="0.276056338 21.4180769 2.85258216 20.4069231 2.85258216 4.59615385 0.276056338 3.585 0.276056338 0.735384615 8.09765258 0.551538462 17.5755869 0.551538462 17.5755869 6.98615385 14.4469484 6.98615385 13.6187793 4.59615385 8.09765258 4.59615385 8.09765258 10.4792308 15.0910798 10.4792308 15.0910798 14.1561538 8.09765258 14.1561538 8.09765258 20.4069231 11.2262911 21.4180769 11.2262911 24.2676923 0.276056338 24.2676923"></polygon>
                        <path d="M41.4084507,12.1338462 C41.4084507,19.7634615 36.8075117,24.8192308 30.0901408,24.8192308 C23.37277,24.8192308 19.6,20.5907692 19.6,12.6853846 C19.6,4.87192308 23.9248826,0.183846154 30.7342723,0.183846154 C37.543662,0.0919230769 41.4084507,4.59615385 41.4084507,12.1338462 L41.4084507,12.1338462 Z M25.3051643,12.4096154 C25.3051643,18.0169231 26.8694836,20.4988462 30.1821596,20.4988462 C33.5868545,20.4988462 35.6112676,18.2926923 35.6112676,12.2257692 C35.6112676,6.61846154 33.9549296,4.32038462 30.5502347,4.32038462 C27.1455399,4.32038462 25.3051643,6.43461538 25.3051643,12.4096154 L25.3051643,12.4096154 Z"></path>
                        <path d="M43.0647887,21.4180769 L45.6413146,20.4069231 L45.6413146,4.59615385 L43.0647887,3.585 L43.0647887,0.735384615 L50.886385,0.551538462 L53.4629108,0.551538462 C58.9840376,0.551538462 62.2967136,2.84961538 62.2967136,7.44576923 C62.2967136,10.6630769 60.7323944,12.6853846 58.4319249,13.8803846 C58.8,14.34 59.3521127,14.9834615 59.8122066,16.0865385 L62.1126761,20.6826923 L64.4131455,21.51 L64.4131455,24.3596154 L58.1558685,24.3596154 L55.3032864,18.1088462 C54.1070423,15.535 53.8309859,14.9834615 52.0826291,14.9834615 L50.886385,14.9834615 L50.886385,20.4988462 L53.2788732,21.51 L53.2788732,24.3596154 L43.0647887,24.3596154 L43.0647887,21.4180769 L43.0647887,21.4180769 Z M52.8187793,11.3984615 C55.4873239,11.3984615 57.0516432,10.1115385 57.0516432,7.81346154 C57.0516432,5.88307692 55.7633803,4.50423077 53.6469484,4.50423077 L50.886385,4.50423077 L50.886385,11.3984615 L52.8187793,11.3984615 L52.8187793,11.3984615 Z"></path>
                        <path d="M91.2826291,24.3596154 L80.5164319,24.3596154 L80.5164319,21.51 L83.0929577,20.5907692 L82.2647887,18.1088462 L74.7192488,18.1088462 L73.8910798,20.4988462 L76.5596244,21.4180769 L76.5596244,24.2676923 L66.2535211,24.2676923 L66.2535211,21.4180769 L68.7380282,20.4988462 L76.1915493,0.551538462 L81.6206573,0.459615385 L88.8901408,20.4988462 L91.2826291,21.4180769 L91.2826291,24.3596154 L91.2826291,24.3596154 Z M78.5840376,6.43461538 L75.915493,14.4319231 L81.1605634,14.4319231 L78.5840376,6.43461538 L78.5840376,6.43461538 Z"></path>
                    </g>
                    <g transform="translate(0.000000, 29.415385)" id="Shape">
                        <path d="M3.31267606,13.3288462 L0.736150235,12.3176923 L0.736150235,9.46807692 L8.55774648,9.28423077 L11.7784038,9.28423077 C18.5877934,9.28423077 22.5446009,13.2369231 22.5446009,20.8665385 C22.5446009,28.4961538 18.1276995,33.0923077 11.3183099,33.0923077 L0.828169014,33.0923077 L0.828169014,30.2426923 L3.40469484,29.2315385 L3.40469484,13.3288462 L3.31267606,13.3288462 Z M11.4103286,29.0476923 C14.7230047,29.0476923 16.9314554,27.1173077 16.9314554,21.0503846 C16.9314554,15.3511538 14.999061,13.3288462 11.686385,13.3288462 L8.64976526,13.3288462 L8.64976526,29.0476923 L11.4103286,29.0476923 L11.4103286,29.0476923 Z"></path>
                        <polygon points="39.0159624 22.6130769 32.2065728 22.6130769 32.2065728 29.0476923 38.2798122 29.0476923 39.0159624 26.29 42.0525822 26.29 42.0525822 33.0923077 24.3849765 33.0923077 24.3849765 30.2426923 26.9615023 29.2315385 26.9615023 13.3288462 24.3849765 12.3176923 24.3849765 9.46807692 32.2065728 9.28423077 41.684507 9.28423077 41.684507 15.8107692 38.6478873 15.8107692 37.8197183 13.3288462 32.2065728 13.3288462 32.2065728 18.9361538 39.0159624 18.9361538"></polygon>
                        <path d="M57.971831,28.68 C57.971831,28.68 59.3521127,29.4153846 61.284507,29.4153846 C63.4929577,29.4153846 65.4253521,28.4961538 65.4253521,26.6576923 C65.4253521,22.705 54.0150235,24.4515385 54.0150235,16.0865385 C54.0150235,11.3984615 57.6957746,8.91653846 62.57277,8.91653846 C66.4375587,8.91653846 70.0262911,10.2953846 70.0262911,10.2953846 L69.8422535,16.4542308 L66.713615,16.4542308 L65.885446,13.6046154 C65.885446,13.6046154 64.3211268,13.0530769 62.9408451,13.0530769 C60.5483568,13.0530769 59.3521127,14.0642308 59.3521127,15.4430769 C59.3521127,19.3957692 70.7624413,17.8330769 70.7624413,25.7384615 C70.7624413,30.7942308 66.8056338,33.5519231 61.6525822,33.5519231 C57.7877934,33.5519231 54.1070423,32.265 54.1070423,32.265 L54.1070423,25.7384615 L57.6037559,25.7384615 L57.971831,28.68 L57.971831,28.68 Z"></path>
                        <path d="M87.8779343,22.6130769 L80.9765258,22.6130769 L80.9765258,29.0476923 L87.0497653,29.0476923 L87.7859155,26.29 L90.8225352,26.29 L90.8225352,33.0923077 L73.1549296,33.0923077 L73.1549296,30.2426923 L75.7314554,29.2315385 L75.7314554,13.3288462 L73.1549296,12.3176923 L73.1549296,9.46807692 L80.9765258,9.28423077 L90.4544601,9.28423077 L90.4544601,15.8107692 L87.4178404,15.8107692 L86.5896714,13.3288462 L80.9765258,13.3288462 L80.9765258,18.9361538 L87.7859155,18.9361538 L87.7859155,22.6130769 L87.8779343,22.6130769 Z M79.1361502,5.60730769 L86.4056338,0.827307692 L88.3380282,4.50423077 L80.7004695,8.27307692 L79.1361502,5.60730769 L79.1361502,5.60730769 Z"></path>
                        <path d="M93.9511737,30.2426923 L96.5276995,29.2315385 L96.5276995,13.3288462 L93.9511737,12.3176923 L93.9511737,9.46807692 L101.77277,9.28423077 L104.349296,9.28423077 C109.870423,9.28423077 113.183099,11.5823077 113.183099,16.1784615 C113.183099,19.3957692 111.618779,21.4180769 109.31831,22.6130769 C109.686385,23.0726923 110.238498,23.7161538 110.698592,24.8192308 L112.999061,29.4153846 L115.299531,30.2426923 L115.299531,33.0923077 L109.042254,33.0923077 L106.189671,26.8415385 C104.993427,24.2676923 104.717371,23.7161538 102.969014,23.7161538 L101.77277,23.7161538 L101.77277,29.2315385 L104.165258,30.2426923 L104.165258,33.0923077 L93.9511737,33.0923077 L93.9511737,30.2426923 L93.9511737,30.2426923 Z M103.613146,20.2230769 C106.28169,20.2230769 107.846009,18.9361538 107.846009,16.6380769 C107.846009,14.7076923 106.557746,13.3288462 104.441315,13.3288462 L101.680751,13.3288462 L101.680751,20.2230769 L103.613146,20.2230769 L103.613146,20.2230769 Z"></path>
                        <polygon points="117.6 30.2426923 120.176526 29.2315385 120.176526 13.3288462 117.6 12.3176923 117.6 9.46807692 127.906103 9.28423077 127.906103 12.3176923 125.329577 13.3288462 125.329577 29.2315385 127.906103 30.2426923 127.906103 33.0923077 117.6 33.0923077"></polygon>
                        <polygon points="145.389671 22.6130769 138.580282 22.6130769 138.580282 29.0476923 144.653521 29.0476923 145.389671 26.29 148.426291 26.29 148.426291 33.0923077 130.758685 33.0923077 130.758685 30.2426923 133.335211 29.2315385 133.335211 13.3288462 130.758685 12.3176923 130.758685 9.46807692 138.580282 9.28423077 148.058216 9.28423077 148.058216 15.8107692 145.021596 15.8107692 144.193427 13.3288462 138.580282 13.3288462 138.580282 18.9361538 145.389671 18.9361538 145.389671 22.6130769"></polygon>
                    </g>
                </g>
                <g id="Group" transform="translate(23.004695, 93.761538)" fill="#FFFFFF">
                    <g transform="translate(30.366197, 0.000000)" id="Shape">
                        <polygon points="-7.10542736e-15 21.6938462 2.57652582 20.6826923 2.57652582 4.78 -7.10542736e-15 3.76884615 -7.10542736e-15 0.919230769 7.82159624 0.735384615 17.2995305 0.735384615 17.2995305 7.17 14.170892 7.17 13.342723 4.78 7.82159624 4.78 7.82159624 10.6630769 14.8150235 10.6630769 14.8150235 14.34 7.82159624 14.34 7.82159624 20.5907692 10.9502347 21.6019231 10.9502347 24.4515385 -7.10542736e-15 24.4515385"></polygon>
                        <path d="M41.1323944,12.3176923 C41.1323944,19.9473077 36.5314554,25.0030769 29.8140845,25.0030769 C23.0046948,25.0030769 19.3239437,20.7746154 19.3239437,12.8692308 C19.3239437,5.05576923 23.6488263,0.367692308 30.458216,0.367692308 C37.2676056,0.275769231 41.1323944,4.78 41.1323944,12.3176923 L41.1323944,12.3176923 Z M25.029108,12.5934615 C25.029108,18.2007692 26.5934272,20.6826923 29.9061033,20.6826923 C33.3107981,20.6826923 35.3352113,18.4765385 35.3352113,12.4096154 C35.3352113,6.80230769 33.6788732,4.50423077 30.2741784,4.50423077 C26.8694836,4.50423077 25.029108,6.61846154 25.029108,12.5934615 L25.029108,12.5934615 Z"></path>
                        <path d="M42.7887324,21.6938462 L45.3652582,20.6826923 L45.3652582,4.78 L42.7887324,3.76884615 L42.7887324,0.919230769 L50.6103286,0.735384615 L53.1868545,0.735384615 C58.7079812,0.735384615 62.0206573,3.03346154 62.0206573,7.62961538 C62.0206573,10.8469231 60.456338,12.8692308 58.1558685,14.0642308 C58.5239437,14.5238462 59.0760563,15.1673077 59.5361502,16.2703846 L61.8366197,20.8665385 L64.1370892,21.6938462 L64.1370892,24.5434615 L57.8798122,24.5434615 L55.02723,18.2926923 C53.8309859,15.7188462 53.5549296,15.1673077 51.8065728,15.1673077 L50.6103286,15.1673077 L50.6103286,20.6826923 L53.0028169,21.6938462 L53.0028169,24.5434615 L42.7887324,24.5434615 L42.7887324,21.6938462 L42.7887324,21.6938462 Z M52.542723,11.5823077 C55.2112676,11.5823077 56.7755869,10.2953846 56.7755869,7.99730769 C56.7755869,6.06692308 55.4873239,4.68807692 53.370892,4.68807692 L50.6103286,4.68807692 L50.6103286,11.5823077 L52.542723,11.5823077 L52.542723,11.5823077 Z"></path>
                        <path d="M91.0065728,24.5434615 L80.2403756,24.5434615 L80.2403756,21.6938462 L82.8169014,20.7746154 L81.9887324,18.2926923 L74.4431925,18.2926923 L73.6150235,20.6826923 L76.2835681,21.6019231 L76.2835681,24.4515385 L66.0694836,24.4515385 L66.0694836,21.6019231 L68.5539906,20.6826923 L76.0075117,0.735384615 L81.4366197,0.643461538 L88.7061033,20.6826923 L91.0985915,21.6019231 L91.0985915,24.5434615 L91.0065728,24.5434615 Z M78.3079812,6.61846154 L75.6394366,14.6157692 L80.884507,14.6157692 L78.3079812,6.61846154 L78.3079812,6.61846154 Z"></path>
                    </g>
                    <g transform="translate(0.000000, 30.334615)" id="Shape">
                        <path d="M3.03661972,12.6853846 L0.460093897,11.6742308 L0.460093897,8.82461538 L8.28169014,8.64076923 L11.5023474,8.64076923 C18.3117371,8.64076923 22.2685446,12.5934615 22.2685446,20.2230769 C22.2685446,27.8526923 17.8516432,32.4488462 11.0422535,32.4488462 L0.552112676,32.4488462 L0.552112676,29.5992308 L3.1286385,28.5880769 L3.1286385,12.6853846 L3.03661972,12.6853846 Z M11.1342723,28.4042308 C14.4469484,28.4042308 16.6553991,26.4738462 16.6553991,20.4069231 C16.6553991,14.7076923 14.7230047,12.6853846 11.4103286,12.6853846 L8.28169014,12.6853846 L8.28169014,28.4042308 L11.1342723,28.4042308 L11.1342723,28.4042308 Z"></path>
                        <polygon points="38.7399061 21.9696154 31.9305164 21.9696154 31.9305164 28.4042308 38.0037559 28.4042308 38.7399061 25.6465385 41.7765258 25.6465385 41.7765258 32.4488462 24.1089202 32.4488462 24.1089202 29.5992308 26.685446 28.4961538 26.685446 12.5934615 24.1089202 11.5823077 24.1089202 8.73269231 31.9305164 8.54884615 41.4084507 8.54884615 41.4084507 15.0753846 38.371831 15.0753846 37.543662 12.5934615 31.9305164 12.5934615 31.9305164 18.2007692 38.7399061 18.2007692"></polygon>
                        <path d="M57.6957746,27.9446154 C57.6957746,27.9446154 59.0760563,28.68 61.0084507,28.68 C63.2169014,28.68 65.1492958,27.7607692 65.1492958,25.9223077 C65.1492958,21.9696154 53.7389671,23.7161538 53.7389671,15.3511538 C53.7389671,10.6630769 57.4197183,8.18115385 62.2967136,8.18115385 C66.1615023,8.18115385 69.7502347,9.56 69.7502347,9.56 L69.5661972,15.7188462 L66.4375587,15.7188462 L65.6093897,12.8692308 C65.6093897,12.8692308 64.0450704,12.3176923 62.6647887,12.3176923 C60.2723005,12.3176923 59.0760563,13.3288462 59.0760563,14.7076923 C59.0760563,18.6603846 70.486385,17.0976923 70.486385,25.0030769 C70.486385,30.0588462 66.5295775,32.8165385 61.3765258,32.8165385 C57.5117371,32.8165385 53.8309859,31.5296154 53.8309859,31.5296154 L53.8309859,25.0030769 L57.3276995,25.0030769 L57.6957746,27.9446154 L57.6957746,27.9446154 Z"></path>
                        <path d="M87.6018779,21.9696154 L80.7924883,21.9696154 L80.7924883,28.4042308 L86.8657277,28.4042308 L87.6018779,25.6465385 L90.6384977,25.6465385 L90.6384977,32.4488462 L72.970892,32.4488462 L72.970892,29.5992308 L75.5474178,28.5880769 L75.5474178,12.6853846 L72.970892,11.6742308 L72.970892,8.82461538 L80.7924883,8.64076923 L90.1784038,8.64076923 L90.1784038,15.1673077 L87.141784,15.1673077 L86.313615,12.6853846 L80.7004695,12.6853846 L80.7004695,18.2926923 L87.5098592,18.2926923 L87.5098592,21.9696154 L87.6018779,21.9696154 Z M78.8600939,4.87192308 L86.1295775,0.0919230769 L88.0619718,3.76884615 L80.4244131,7.53769231 L78.8600939,4.87192308 L78.8600939,4.87192308 Z"></path>
                        <path d="M93.6751174,29.5073077 L96.2516432,28.4961538 L96.2516432,12.5934615 L93.6751174,11.5823077 L93.6751174,8.73269231 L101.496714,8.54884615 L104.073239,8.54884615 C109.594366,8.54884615 112.907042,10.8469231 112.907042,15.4430769 C112.907042,18.6603846 111.342723,20.6826923 109.042254,21.8776923 C109.410329,22.3373077 109.962441,22.9807692 110.422535,24.0838462 L112.723005,28.68 L115.023474,29.5073077 L115.023474,32.3569231 L108.766197,32.3569231 L105.913615,26.1061538 C104.717371,23.5323077 104.441315,22.9807692 102.692958,22.9807692 L101.496714,22.9807692 L101.496714,28.4961538 L103.889202,29.5073077 L103.889202,32.3569231 L93.6751174,32.3569231 L93.6751174,29.5073077 L93.6751174,29.5073077 Z M103.337089,19.4876923 C106.005634,19.4876923 107.569953,18.2007692 107.569953,15.9026923 C107.569953,13.9723077 106.28169,12.5934615 104.165258,12.5934615 L101.404695,12.5934615 L101.404695,19.4876923 L103.337089,19.4876923 L103.337089,19.4876923 Z"></path>
                        <polygon points="117.323944 29.5073077 119.900469 28.4961538 119.900469 12.5934615 117.323944 11.5823077 117.323944 8.73269231 127.630047 8.54884615 127.630047 11.5823077 125.053521 12.5934615 125.053521 28.4961538 127.630047 29.5073077 127.630047 32.3569231 117.323944 32.3569231"></polygon>
                        <polygon points="145.113615 21.9696154 138.304225 21.9696154 138.304225 28.4042308 144.377465 28.4042308 145.113615 25.6465385 148.150235 25.6465385 148.150235 32.4488462 130.482629 32.4488462 130.482629 29.5992308 133.059155 28.5880769 133.059155 12.6853846 130.482629 11.6742308 130.482629 8.82461538 138.304225 8.64076923 147.78216 8.64076923 147.78216 15.1673077 144.74554 15.1673077 143.917371 12.6853846 138.304225 12.6853846 138.304225 18.2926923 145.113615 18.2926923 145.113615 21.9696154"></polygon>
                    </g>
                </g>
                <g id="Group" transform="translate(71.774648, 186.603846)" fill="#FFFFFF">
                    <path d="M11.1342723,17.0976923 C10.9502347,17.1896154 10.858216,17.2815385 9.93802817,17.7411538 C9.47793427,17.925 8.4657277,18.2926923 7.63755869,18.2926923 C6.99342723,18.2926923 5.70516432,18.3846154 4.96901408,17.7411538 C4.23286385,17.0976923 4.23286385,16.1784615 4.23286385,15.8107692 C4.32488263,15.2592308 4.32488263,14.9834615 4.50892019,14.34 C4.96901408,14.4319231 5.61314554,14.34 6.257277,14.34 C6.90140845,14.2480769 7.63755869,14.0642308 8.55774648,13.6965385 C9.20187793,13.4207692 9.84600939,12.8692308 10.4901408,12.3176923 C11.0422535,11.7661538 11.5023474,11.1226923 11.8704225,10.4792308 C12.2384977,9.83576923 12.514554,9.10038462 12.6065728,8.45692308 C12.6985915,7.81346154 12.6985915,7.17 12.4225352,6.61846154 C12.2384977,6.06692308 11.7784038,5.69923077 11.2262911,5.33153846 C10.6741784,5.05576923 9.84600939,4.96384615 8.83380282,5.05576923 C7.26948357,5.23961538 5.88920188,5.69923077 4.78497653,6.52653846 C3.68075117,7.35384615 2.76056338,8.365 2.11643192,9.46807692 C1.65633803,10.2034615 1.38028169,10.9388462 1.10422535,11.7661538 L1.10422535,11.7661538 C0.828169014,11.6742308 0.184037559,11.8580769 0.0920187793,12.5015385 C-2.01075268e-13,13.145 0.552112676,13.5126923 0.828169014,13.5126923 C0.736150235,14.6157692 0.828169014,15.6269231 1.10422535,16.6380769 C1.47230047,17.6492308 2.2084507,18.7523077 3.1286385,19.3038462 C3.95680751,19.8553846 5.61314554,20.2230769 6.62535211,20.2230769 C7.63755869,20.2230769 8.74178404,20.0392308 9.56995305,19.7634615 C10.3981221,19.4876923 11.8704225,18.8442308 12.0544601,18.5684615 C12.8826291,17.7411538 11.8704225,16.6380769 11.1342723,17.0976923 L11.1342723,17.0976923 Z M6.07323944,10.6630769 C6.44131455,10.0196154 6.80938967,9.37615385 7.26948357,8.82461538 C7.72957746,8.27307692 8.09765258,7.81346154 8.55774648,7.44576923 C9.01784038,7.07807692 9.38591549,6.89423077 9.75399061,6.89423077 C10.2140845,6.89423077 10.4901408,7.07807692 10.6741784,7.44576923 C10.7661972,7.90538462 10.7661972,8.365 10.5821596,8.91653846 C10.3981221,9.46807692 10.1220657,10.1115385 9.66197183,10.6630769 C9.20187793,11.3065385 8.4657277,11.8580769 8.0056338,12.0419231 C7.45352113,12.3176923 7.08544601,12.5015385 6.62535211,12.5934615 C6.16525822,12.6853846 5.61314554,12.6853846 5.24507042,12.6853846 C5.3370892,11.95 5.70516432,11.3065385 6.07323944,10.6630769 L6.07323944,10.6630769 Z" id="Shape"></path>
                    <path d="M25.3971831,10.2034615 C24.9370892,10.9388462 24.5690141,11.7661538 24.2929577,12.5015385 C24.0169014,13.3288462 23.8328638,14.0642308 23.7408451,14.7996154 C23.6488263,15.535 23.7408451,16.2703846 23.8328638,16.9138462 C24.0169014,17.5573077 24.2929577,18.1088462 24.6610329,18.6603846 C25.1211268,19.12 25.6732394,19.4876923 26.3173709,19.7634615 C27.0535211,20.0392308 28.8018779,20.315 30.3661972,19.7634615 C31.9305164,19.2119231 33.2187793,17.8330769 33.9549296,16.8219231 C34.6910798,15.8107692 35.2431925,14.7996154 35.7032864,13.7884615 C36.1633803,12.6853846 36.4394366,11.6742308 36.6234742,10.6630769 C36.8075117,9.65192308 36.715493,8.64076923 36.5314554,7.81346154 C36.3474178,6.98615385 35.9793427,6.34269231 35.42723,5.79115385 C34.8751174,5.23961538 34.1389671,5.05576923 33.2187793,5.05576923 C31.9305164,5.05576923 30.7342723,5.42346154 29.6300469,5.975 C28.5258216,6.61846154 27.513615,7.35384615 26.685446,8.27307692 C26.0413146,9.19230769 25.9492958,9.46807692 25.3971831,10.2034615 L25.3971831,10.2034615 Z M27.6056338,15.7188462 C27.6056338,14.9834615 27.6976526,14.0642308 27.9737089,13.145 C28.2497653,12.2257692 28.5258216,11.3065385 28.9859155,10.4792308 C29.1699531,10.0196154 29.4460094,9.56 29.8140845,9.00846154 C30.1821596,8.45692308 30.7342723,7.99730769 31.286385,7.62961538 C31.8384977,7.26192308 32.7586854,7.07807692 33.3107981,6.98615385 C33.9549296,6.89423077 34.4150235,7.17 34.6910798,7.62961538 C34.9671362,8.08923077 35.0591549,8.73269231 35.0591549,9.56 C35.0591549,10.2953846 34.8751174,11.2146154 34.599061,12.1338462 C34.3230047,13.0530769 33.9549296,13.9723077 33.4028169,14.7996154 C33.4028169,14.7996154 32.8507042,15.6269231 32.2065728,16.3623077 C31.6544601,17.0057692 31.3784038,17.1896154 30.9183099,17.4653846 C30.458216,17.8330769 29.6300469,18.1088462 29.1699531,18.1088462 C28.7098592,18.1088462 28.2497653,18.0169231 27.9737089,17.5573077 C27.6976526,17.0976923 27.6056338,16.4542308 27.6056338,15.7188462 L27.6056338,15.7188462 Z" id="Shape"></path>
                    <path d="M23.6488263,1.93038462 C23.4647887,1.65461538 23.2807512,1.37884615 23.0046948,1.195 C22.7286385,0.919230769 22.4525822,0.735384615 22.1765258,0.551538462 C21.9004695,0.367692308 21.5323944,0.275769231 21.256338,0.183846154 C20.9802817,0.0919230769 20.7042254,0.0919230769 20.428169,0.183846154 C20.1521127,0.275769231 19.9680751,0.367692308 19.8760563,0.643461538 C19.7840376,0.827307692 19.6,1.28692308 19.3239437,1.93038462 C19.0478873,2.57384615 18.6798122,3.40115385 18.3117371,4.32038462 C17.943662,5.23961538 17.4835681,6.34269231 17.115493,7.44576923 C16.6553991,8.64076923 16.1953052,10.0196154 15.82723,11.2146154 C15.4591549,12.4096154 15.1830986,13.5126923 14.999061,14.6157692 C14.8150235,15.7188462 14.6309859,16.73 14.7230047,17.5573077 C14.8150235,18.2007692 15.0910798,18.9361538 15.4591549,19.3957692 C16.0112676,20.0392308 16.8394366,20.1311538 17.3915493,20.2230769 C17.8516432,20.2230769 18.8638498,20.1311538 19.4159624,19.9473077 C19.8760563,19.7634615 20.7962441,19.3957692 21.3483568,19.12 C21.8084507,18.9361538 22.084507,18.6603846 22.2685446,18.5684615 C22.9126761,17.925 22.1765258,16.6380769 21.1643192,17.2815385 C20.9802817,17.3734615 20.7042254,17.5573077 20.428169,17.6492308 C19.8760563,18.0169231 19.1399061,18.3846154 18.4037559,18.3846154 C17.5755869,18.4765385 17.0234742,18.1088462 16.9314554,17.4653846 C16.8394366,16.8219231 17.7596244,14.8915385 18.1276995,14.0642308 C18.4957746,13.2369231 18.9558685,12.3176923 19.4159624,11.3984615 C19.8760563,10.4792308 20.428169,9.28423077 20.9802817,8.365 C21.4403756,7.44576923 21.9004695,6.61846154 22.3605634,5.88307692 C22.7286385,5.14769231 23.0967136,4.50423077 23.37277,3.95269231 C23.6488263,3.40115385 23.8328638,3.03346154 23.8328638,2.84961538 C23.8328638,2.39 23.7408451,2.20615385 23.6488263,1.93038462 L23.6488263,1.93038462 Z" id="Shape"></path>
                    <path d="M45.457277,6.89423077 C46.1934272,5.79115385 47.2056338,4.13653846 47.941784,3.12538462 C48.1258216,2.94153846 45.7333333,3.40115385 44.9051643,3.67692308 C44.0769953,3.95269231 43.2488263,4.13653846 42.5126761,4.32038462 C41.7765258,4.50423077 41.0403756,4.78 40.3962441,4.87192308 C39.7521127,4.96384615 39.2920188,4.96384615 38.9239437,4.96384615 C38.6478873,4.96384615 38.4638498,4.87192308 38.2798122,4.68807692 C38.1877934,4.50423077 38.0957746,4.22846154 38.0957746,3.95269231 C38.0957746,3.67692308 38.1877934,3.21730769 38.2798122,2.94153846 C38.371831,2.57384615 38.5558685,2.29807692 38.7399061,2.02230769 C38.9239437,1.74653846 39.1079812,1.47076923 39.3840376,1.195 C39.6600939,0.919230769 39.8441315,0.827307692 40.1201878,0.735384615 C40.5802817,0.551538462 41.1323944,0.551538462 41.9605634,0.643461538 C42.6967136,0.735384615 43.5248826,0.735384615 44.4450704,0.827307692 C45.2732394,0.919230769 46.1934272,0.919230769 47.0215962,0.919230769 C47.8497653,0.919230769 48.8619718,0.735384615 49.2300469,0.459615385 C49.6901408,0.275769231 49.9661972,0.0919230769 50.4262911,0.183846154 C50.886385,0.275769231 51.2544601,0.459615385 51.6225352,0.735384615 C51.9906103,1.01115385 52.2666667,1.37884615 52.4507042,1.74653846 C52.6347418,2.20615385 52.6347418,2.57384615 52.4507042,3.03346154 C52.3586854,3.21730769 52.1746479,3.585 51.8065728,3.95269231 C50.058216,5.51538462 48.1258216,7.99730769 47.0215962,9.56 C44.4450704,12.8692308 43.800939,14.1561538 43.2488263,15.1673077 C42.4206573,16.4542308 40.856338,19.7634615 40.5802817,20.0392308 C40.2122066,20.4069231 39.8441315,20.315 39.5680751,20.2230769 C39.2920188,20.1311538 38.9239437,19.6715385 39.1079812,19.2119231 C39.2,18.9361538 42.0525822,13.2369231 42.6046948,12.1338462 C43.1568075,11.0307692 44.629108,8.27307692 45.457277,6.89423077 L45.457277,6.89423077 Z" id="Shape"></path>
                </g>
                <g id="Group" transform="translate(23.004695, 61.588462)" fill="#FFFFFF">
                    <path d="M1.38028169,15.7188462 C1.38028169,15.7188462 3.22065728,17.7411538 6.16525822,17.7411538 C8.37370892,17.7411538 10.1220657,16.3623077 10.1220657,14.2480769 C10.1220657,9.19230769 1.01220657,10.5711538 1.01220657,4.96384615 C1.01220657,2.57384615 3.1286385,0.367692308 6.34929577,0.367692308 C9.29389671,0.367692308 10.858216,2.02230769 10.858216,2.02230769 L10.2140845,2.94153846 C10.2140845,2.94153846 8.64976526,1.37884615 6.34929577,1.37884615 C3.68075117,1.37884615 2.11643192,3.12538462 2.11643192,4.87192308 C2.11643192,9.56 11.2262911,8.18115385 11.2262911,14.1561538 C11.2262911,16.73 9.20187793,18.8442308 6.07323944,18.8442308 C2.57652582,18.8442308 0.644131455,16.6380769 0.644131455,16.6380769 L1.38028169,15.7188462 L1.38028169,15.7188462 Z" id="Shape"></path>
                    <path d="M27.0535211,5.42346154 C30.7342723,5.42346154 33.6788732,8.27307692 33.6788732,12.0419231 C33.6788732,15.8107692 30.7342723,18.8442308 27.0535211,18.8442308 C23.37277,18.8442308 20.428169,15.9026923 20.428169,12.0419231 C20.428169,8.27307692 23.37277,5.42346154 27.0535211,5.42346154 L27.0535211,5.42346154 Z M27.0535211,17.7411538 C30.0901408,17.7411538 32.5746479,15.2592308 32.5746479,12.0419231 C32.5746479,8.91653846 30.0901408,6.43461538 27.0535211,6.43461538 C24.0169014,6.43461538 21.5323944,8.82461538 21.5323944,12.0419231 C21.5323944,15.2592308 24.0169014,17.7411538 27.0535211,17.7411538 L27.0535211,17.7411538 Z" id="Shape"></path>
                    <path d="M44.0769953,6.80230769 L42.5126761,6.80230769 L42.5126761,5.79115385 L44.0769953,5.79115385 L44.0769953,5.23961538 C44.0769953,1.01115385 46.8375587,0.551538462 48.1258216,0.551538462 C48.4938967,0.551538462 48.7699531,0.643461538 48.7699531,0.643461538 L48.7699531,1.65461538 C48.7699531,1.65461538 48.5859155,1.56269231 48.2178404,1.56269231 C47.2056338,1.56269231 45.1812207,1.93038462 45.1812207,5.23961538 L45.1812207,5.88307692 L48.6779343,5.88307692 L48.6779343,6.89423077 L45.0892019,6.89423077 L45.0892019,18.5684615 L43.9849765,18.5684615 L43.9849765,6.80230769 L44.0769953,6.80230769 Z" id="Shape"></path>
                    <path d="M58.0638498,6.80230769 L56.4075117,6.80230769 L56.4075117,5.79115385 L58.0638498,5.79115385 L58.0638498,2.20615385 L59.1680751,2.20615385 L59.1680751,5.79115385 L62.4807512,5.79115385 L62.4807512,6.80230769 L59.1680751,6.80230769 L59.1680751,13.7884615 C59.1680751,17.1896154 61.1924883,17.5573077 62.2046948,17.5573077 C62.57277,17.5573077 62.7568075,17.4653846 62.7568075,17.4653846 L62.7568075,18.4765385 C62.7568075,18.4765385 62.4807512,18.5684615 62.1126761,18.5684615 C60.8244131,18.5684615 58.0638498,18.1088462 58.0638498,13.8803846 L58.0638498,6.80230769 L58.0638498,6.80230769 Z" id="Shape"></path>
                    <path d="M70.3943662,5.69923077 L71.4985915,5.69923077 L74.9953052,15.7188462 C75.1793427,16.3623077 75.4553991,17.0976923 75.4553991,17.0976923 L75.5474178,17.0976923 C75.5474178,17.0976923 75.7314554,16.3623077 76.0075117,15.7188462 L79.5042254,5.79115385 L80.7004695,5.79115385 L84.1971831,15.7188462 C84.3812207,16.3623077 84.657277,17.0976923 84.657277,17.0976923 L84.7492958,17.0976923 C84.7492958,17.0976923 84.9333333,16.3623077 85.2093897,15.7188462 L88.7061033,5.69923077 L89.8103286,5.69923077 L85.3014085,18.4765385 L84.1971831,18.4765385 L80.6084507,8.54884615 C80.4244131,7.90538462 80.1483568,7.17 80.1483568,7.17 L80.056338,7.17 C80.056338,7.17 79.8723005,7.90538462 79.5962441,8.54884615 L76.0995305,18.4765385 L74.9953052,18.4765385 L70.3943662,5.69923077 L70.3943662,5.69923077 Z" id="Shape"></path>
                    <path d="M105.729577,10.6630769 L106.557746,10.6630769 L106.557746,10.2034615 C106.557746,7.35384615 105.085446,6.43461538 103.061033,6.43461538 C100.852582,6.43461538 99.3802817,7.62961538 99.3802817,7.62961538 L98.7361502,6.80230769 C98.7361502,6.80230769 100.300469,5.42346154 103.061033,5.42346154 C106.005634,5.42346154 107.569953,7.07807692 107.569953,10.2034615 L107.569953,18.4765385 L106.465728,18.4765385 L106.465728,16.8219231 C106.465728,16.1784615 106.557746,15.7188462 106.557746,15.7188462 L106.465728,15.7188462 C106.465728,15.7188462 105.361502,18.8442308 101.956808,18.8442308 C99.9323944,18.8442308 97.6319249,17.7411538 97.6319249,15.1673077 C97.8159624,10.755 103.429108,10.6630769 105.729577,10.6630769 L105.729577,10.6630769 Z M102.232864,17.8330769 C104.993427,17.8330769 106.557746,14.9834615 106.557746,12.4096154 L106.557746,11.6742308 L105.729577,11.6742308 C103.521127,11.6742308 98.9201878,11.6742308 98.9201878,14.9834615 C98.9201878,16.3623077 100.024413,17.8330769 102.232864,17.8330769 L102.232864,17.8330769 Z" id="Shape"></path>
                    <path d="M118.33615,5.69923077 L119.440376,5.69923077 L119.440376,8.08923077 C119.440376,8.64076923 119.348357,9.10038462 119.348357,9.10038462 L119.440376,9.10038462 C120.084507,7.17 121.464789,5.51538462 123.489202,5.51538462 C123.857277,5.51538462 124.225352,5.60730769 124.225352,5.60730769 L124.225352,6.71038462 C124.225352,6.71038462 123.949296,6.61846154 123.673239,6.61846154 C121.648826,6.61846154 120.452582,8.27307692 119.900469,10.2034615 C119.624413,11.1226923 119.532394,12.0419231 119.532394,12.8692308 L119.532394,18.3846154 L118.428169,18.3846154 L118.428169,5.69923077 L118.33615,5.69923077 Z" id="Shape"></path>
                    <path d="M138.396244,5.42346154 C141.892958,5.42346154 143.641315,8.18115385 143.641315,11.2146154 C143.641315,11.4903846 143.549296,11.8580769 143.549296,11.8580769 L133.335211,11.8580769 C133.335211,15.535 135.819718,17.6492308 138.764319,17.6492308 C141.248826,17.6492308 142.721127,16.0865385 142.721127,16.0865385 L143.273239,17.0057692 C143.273239,17.0057692 141.524883,18.7523077 138.764319,18.7523077 C135.175587,18.7523077 132.138967,16.1784615 132.138967,12.1338462 C132.138967,7.81346154 135.083568,5.42346154 138.396244,5.42346154 L138.396244,5.42346154 Z M142.44507,10.9388462 C142.353052,7.81346154 140.420657,6.43461538 138.304225,6.43461538 C135.911737,6.43461538 133.795305,7.99730769 133.335211,10.9388462 L142.44507,10.9388462 L142.44507,10.9388462 Z" id="Shape"></path>
                </g>
                <polygon id="Shape" fill="#FFFFFF" points="28.6178404 99.7365385 30.6422535 103.873077 35.3352113 104.608462 31.9305164 107.825769 32.7586854 112.421923 28.6178404 110.215769 24.4769953 112.421923 25.3051643 107.825769 21.9004695 104.608462 26.5934272 103.873077"></polygon>
                <polygon id="Shape" fill="#FFFFFF" points="167.198122 99.7365385 169.222535 103.873077 173.915493 104.608462 170.510798 107.825769 171.338967 112.421923 167.198122 110.215769 163.057277 112.421923 163.885446 107.825769 160.480751 104.608462 165.173709 103.873077"></polygon>
                <g id="Group" transform="translate(23.004695, 172.815385)" fill="#FFFFFF">
                    <path d="M1.38028169,1.93038462 L0.828169014,1.93038462 C0.368075117,1.93038462 0,1.56269231 0,1.10307692 C0,0.643461538 0.368075117,0.275769231 0.828169014,0.275769231 L1.38028169,0.275769231 C1.84037559,0.275769231 2.2084507,0.643461538 2.2084507,1.10307692 C2.2084507,1.56269231 1.84037559,1.93038462 1.38028169,1.93038462 L1.38028169,1.93038462 Z" id="Shape"></path>
                    <path d="M142.44507,1.93038462 L141.340845,1.93038462 C140.880751,1.93038462 140.512676,1.56269231 140.512676,1.10307692 C140.512676,0.643461538 140.880751,0.275769231 141.340845,0.275769231 L142.44507,0.275769231 C142.905164,0.275769231 143.273239,0.643461538 143.273239,1.10307692 C143.273239,1.56269231 142.905164,1.93038462 142.44507,1.93038462 L142.44507,1.93038462 Z M136.003756,1.93038462 L134.899531,1.93038462 C134.439437,1.93038462 134.071362,1.56269231 134.071362,1.10307692 C134.071362,0.643461538 134.439437,0.275769231 134.899531,0.275769231 L136.003756,0.275769231 C136.46385,0.275769231 136.831925,0.643461538 136.831925,1.10307692 C136.831925,1.56269231 136.46385,1.93038462 136.003756,1.93038462 L136.003756,1.93038462 Z M129.562441,1.93038462 L128.458216,1.93038462 C127.998122,1.93038462 127.630047,1.56269231 127.630047,1.10307692 C127.630047,0.643461538 127.998122,0.275769231 128.458216,0.275769231 L129.562441,0.275769231 C130.022535,0.275769231 130.39061,0.643461538 130.39061,1.10307692 C130.39061,1.56269231 130.022535,1.93038462 129.562441,1.93038462 L129.562441,1.93038462 Z M123.213146,1.93038462 L122.10892,1.93038462 C121.648826,1.93038462 121.280751,1.56269231 121.280751,1.10307692 C121.280751,0.643461538 121.648826,0.275769231 122.10892,0.275769231 L123.213146,0.275769231 C123.673239,0.275769231 124.041315,0.643461538 124.041315,1.10307692 C124.041315,1.56269231 123.673239,1.93038462 123.213146,1.93038462 L123.213146,1.93038462 Z M116.771831,1.93038462 L115.667606,1.93038462 C115.207512,1.93038462 114.839437,1.56269231 114.839437,1.10307692 C114.839437,0.643461538 115.207512,0.275769231 115.667606,0.275769231 L116.771831,0.275769231 C117.231925,0.275769231 117.6,0.643461538 117.6,1.10307692 C117.6,1.56269231 117.231925,1.93038462 116.771831,1.93038462 L116.771831,1.93038462 Z M110.330516,1.93038462 L109.226291,1.93038462 C108.766197,1.93038462 108.398122,1.56269231 108.398122,1.10307692 C108.398122,0.643461538 108.766197,0.275769231 109.226291,0.275769231 L110.330516,0.275769231 C110.79061,0.275769231 111.158685,0.643461538 111.158685,1.10307692 C111.158685,1.56269231 110.79061,1.93038462 110.330516,1.93038462 L110.330516,1.93038462 Z M103.981221,1.93038462 L102.876995,1.93038462 C102.416901,1.93038462 102.048826,1.56269231 102.048826,1.10307692 C102.048826,0.643461538 102.416901,0.275769231 102.876995,0.275769231 L103.981221,0.275769231 C104.441315,0.275769231 104.80939,0.643461538 104.80939,1.10307692 C104.80939,1.56269231 104.441315,1.93038462 103.981221,1.93038462 L103.981221,1.93038462 Z M97.5399061,1.93038462 L96.4356808,1.93038462 C95.9755869,1.93038462 95.6075117,1.56269231 95.6075117,1.10307692 C95.6075117,0.643461538 95.9755869,0.275769231 96.4356808,0.275769231 L97.5399061,0.275769231 C98,0.275769231 98.3680751,0.643461538 98.3680751,1.10307692 C98.3680751,1.56269231 98,1.93038462 97.5399061,1.93038462 L97.5399061,1.93038462 Z M91.1906103,1.93038462 L90.086385,1.93038462 C89.6262911,1.93038462 89.258216,1.56269231 89.258216,1.10307692 C89.258216,0.643461538 89.6262911,0.275769231 90.086385,0.275769231 L91.1906103,0.275769231 C91.6507042,0.275769231 92.0187793,0.643461538 92.0187793,1.10307692 C92.0187793,1.56269231 91.5586854,1.93038462 91.1906103,1.93038462 L91.1906103,1.93038462 Z M84.7492958,1.93038462 L83.6450704,1.93038462 C83.1849765,1.93038462 82.8169014,1.56269231 82.8169014,1.10307692 C82.8169014,0.643461538 83.1849765,0.275769231 83.6450704,0.275769231 L84.7492958,0.275769231 C85.2093897,0.275769231 85.5774648,0.643461538 85.5774648,1.10307692 C85.5774648,1.56269231 85.2093897,1.93038462 84.7492958,1.93038462 L84.7492958,1.93038462 Z M78.3079812,1.93038462 L77.2957746,1.93038462 C76.8356808,1.93038462 76.4676056,1.56269231 76.4676056,1.10307692 C76.4676056,0.643461538 76.8356808,0.275769231 77.2957746,0.275769231 L78.4,0.275769231 C78.8600939,0.275769231 79.228169,0.643461538 79.228169,1.10307692 C79.228169,1.56269231 78.7680751,1.93038462 78.3079812,1.93038462 L78.3079812,1.93038462 Z M71.9586854,1.93038462 L70.8544601,1.93038462 C70.3943662,1.93038462 70.0262911,1.56269231 70.0262911,1.10307692 C70.0262911,0.643461538 70.3943662,0.275769231 70.8544601,0.275769231 L71.9586854,0.275769231 C72.4187793,0.275769231 72.7868545,0.643461538 72.7868545,1.10307692 C72.7868545,1.56269231 72.3267606,1.93038462 71.9586854,1.93038462 L71.9586854,1.93038462 Z M65.5173709,1.93038462 L64.4131455,1.93038462 C63.9530516,1.93038462 63.5849765,1.56269231 63.5849765,1.10307692 C63.5849765,0.643461538 63.9530516,0.275769231 64.4131455,0.275769231 L65.5173709,0.275769231 C65.9774648,0.275769231 66.3455399,0.643461538 66.3455399,1.10307692 C66.3455399,1.56269231 65.9774648,1.93038462 65.5173709,1.93038462 L65.5173709,1.93038462 Z M59.0760563,1.93038462 L57.971831,1.93038462 C57.5117371,1.93038462 57.143662,1.56269231 57.143662,1.10307692 C57.143662,0.643461538 57.5117371,0.275769231 57.971831,0.275769231 L59.0760563,0.275769231 C59.5361502,0.275769231 59.9042254,0.643461538 59.9042254,1.10307692 C59.9042254,1.56269231 59.5361502,1.93038462 59.0760563,1.93038462 L59.0760563,1.93038462 Z M52.7267606,1.93038462 L51.6225352,1.93038462 C51.1624413,1.93038462 50.7943662,1.56269231 50.7943662,1.10307692 C50.7943662,0.643461538 51.1624413,0.275769231 51.6225352,0.275769231 L52.7267606,0.275769231 C53.1868545,0.275769231 53.5549296,0.643461538 53.5549296,1.10307692 C53.5549296,1.56269231 53.0948357,1.93038462 52.7267606,1.93038462 L52.7267606,1.93038462 Z M46.285446,1.93038462 L45.1812207,1.93038462 C44.7211268,1.93038462 44.3530516,1.56269231 44.3530516,1.10307692 C44.3530516,0.643461538 44.7211268,0.275769231 45.1812207,0.275769231 L46.285446,0.275769231 C46.7455399,0.275769231 47.113615,0.643461538 47.113615,1.10307692 C47.113615,1.56269231 46.7455399,1.93038462 46.285446,1.93038462 L46.285446,1.93038462 Z M39.8441315,1.93038462 L38.7399061,1.93038462 C38.2798122,1.93038462 37.9117371,1.56269231 37.9117371,1.10307692 C37.9117371,0.643461538 38.2798122,0.275769231 38.7399061,0.275769231 L39.8441315,0.275769231 C40.3042254,0.275769231 40.6723005,0.643461538 40.6723005,1.10307692 C40.6723005,1.56269231 40.3042254,1.93038462 39.8441315,1.93038462 L39.8441315,1.93038462 Z M33.4948357,1.93038462 L32.3906103,1.93038462 C31.9305164,1.93038462 31.5624413,1.56269231 31.5624413,1.10307692 C31.5624413,0.643461538 31.9305164,0.275769231 32.3906103,0.275769231 L33.4948357,0.275769231 C33.9549296,0.275769231 34.3230047,0.643461538 34.3230047,1.10307692 C34.3230047,1.56269231 33.9549296,1.93038462 33.4948357,1.93038462 L33.4948357,1.93038462 Z M27.0535211,1.93038462 L25.9492958,1.93038462 C25.4892019,1.93038462 25.1211268,1.56269231 25.1211268,1.10307692 C25.1211268,0.643461538 25.4892019,0.275769231 25.9492958,0.275769231 L27.0535211,0.275769231 C27.513615,0.275769231 27.8816901,0.643461538 27.8816901,1.10307692 C27.8816901,1.56269231 27.513615,1.93038462 27.0535211,1.93038462 L27.0535211,1.93038462 Z M20.6122066,1.93038462 L19.5079812,1.93038462 C19.0478873,1.93038462 18.6798122,1.56269231 18.6798122,1.10307692 C18.6798122,0.643461538 19.0478873,0.275769231 19.5079812,0.275769231 L20.6122066,0.275769231 C21.0723005,0.275769231 21.4403756,0.643461538 21.4403756,1.10307692 C21.4403756,1.56269231 21.0723005,1.93038462 20.6122066,1.93038462 L20.6122066,1.93038462 Z M14.2629108,1.93038462 L13.1586854,1.93038462 C12.6985915,1.93038462 12.3305164,1.56269231 12.3305164,1.10307692 C12.3305164,0.643461538 12.6985915,0.275769231 13.1586854,0.275769231 L14.2629108,0.275769231 C14.7230047,0.275769231 15.0910798,0.643461538 15.0910798,1.10307692 C15.0910798,1.56269231 14.7230047,1.93038462 14.2629108,1.93038462 L14.2629108,1.93038462 Z M7.82159624,1.93038462 L6.71737089,1.93038462 C6.257277,1.93038462 5.88920188,1.56269231 5.88920188,1.10307692 C5.88920188,0.643461538 6.257277,0.275769231 6.71737089,0.275769231 L7.82159624,0.275769231 C8.28169014,0.275769231 8.64976526,0.643461538 8.64976526,1.10307692 C8.64976526,1.56269231 8.28169014,1.93038462 7.82159624,1.93038462 L7.82159624,1.93038462 Z" id="Shape"></path>
                    <path d="M148.334272,1.93038462 L147.78216,1.93038462 C147.322066,1.93038462 146.953991,1.56269231 146.953991,1.10307692 C146.953991,0.643461538 147.322066,0.275769231 147.78216,0.275769231 L148.334272,0.275769231 C148.794366,0.275769231 149.162441,0.643461538 149.162441,1.10307692 C149.162441,1.56269231 148.794366,1.93038462 148.334272,1.93038462 L148.334272,1.93038462 Z" id="Shape"></path>
                </g>
                <path d="M98,28.5880769 C93.2150235,28.5880769 89.3502347,32.4488462 89.3502347,37.2288462 C89.3502347,42.0088462 93.2150235,45.8696154 98,45.8696154 C102.784977,45.8696154 106.649765,42.0088462 106.649765,37.2288462 C106.649765,32.4488462 102.692958,28.5880769 98,28.5880769 L98,28.5880769 Z M97.0798122,36.8611538 C96.5276995,37.5965385 95.6075117,37.6884615 94.8713615,37.2288462 C94.1352113,36.6773077 94.0431925,35.7580769 94.5032864,35.0226923 C95.0553991,34.2873077 95.9755869,34.1953846 96.7117371,34.655 C97.4478873,35.2065385 97.6319249,36.1257692 97.0798122,36.8611538 L97.0798122,36.8611538 Z M101.312676,39.435 C100.760563,40.1703846 99.8403756,40.2623077 99.1042254,39.8026923 C98.3680751,39.2511538 98.2760563,38.3319231 98.7361502,37.5965385 C99.2882629,36.8611538 100.208451,36.7692308 100.944601,37.2288462 C101.680751,37.7803846 101.864789,38.6996154 101.312676,39.435 L101.312676,39.435 Z" id="Shape" fill="#FFFFFF"></path>
            </g>
        </g>
    </g>
</svg>